HIERARCHY
ROOT pelvis
{
  OFFSET 0 100 0
  CHANNELS 6 Xposition Yposition Zposition Zrotation Xrotation Yrotation
  JOINT pelvis_right_femur
  {
    OFFSET -10.78128 -3.44521 -0.5502486
    CHANNELS 3 Zrotation Xrotation Yrotation
    JOINT right_femur_tibia
    {
      OFFSET -0.8047443 -44.0398 -0.1307829
      CHANNELS 3 Zrotation Xrotation Yrotation
      JOINT right_tibia_foot
      {
        OFFSET 3.006224 -47.83518 -5
        CHANNELS 3 Zrotation Xrotation Yrotation
        End Site
        {
          OFFSET 0 -5 15
        }
      }
    }
  }
  JOINT pelvis_left_femur
  {
    OFFSET 10.78128 -3.44521 -0.5502486
    CHANNELS 3 Zrotation Xrotation Yrotation
    JOINT left_femur_tibia
    {
      OFFSET 0.8047443 -44.0398 -0.1307829
      CHANNELS 3 Zrotation Xrotation Yrotation
      JOINT left_tibia_foot
      {
        OFFSET -4.370144 -48.10324 -4.275266
        CHANNELS 3 Zrotation Xrotation Yrotation
        End Site
        {
          OFFSET 0 -5 15
        }
      }
    }
  }
  JOINT pelvis_spine1
  {
    OFFSET 0 6.468898 -3.129235
    CHANNELS 3 Zrotation Xrotation Yrotation
    JOINT spine1
    {
      OFFSET 0 23.15396 4.99043
      CHANNELS 3 Zrotation Xrotation Yrotation
      JOINT spine2
      {
        OFFSET 0 20.79997 -5.064912
        CHANNELS 3 Zrotation Xrotation Yrotation
        JOINT neck
        {
          OFFSET 0 14.38658 9.616178
          CHANNELS 3 Zrotation Xrotation Yrotation
          End Site
          {
            OFFSET 0 20 0
          }
        }
      }
      JOINT right_manubrium
      {
        OFFSET -5.722621 16.35077 3.967754
        CHANNELS 3 Zrotation Xrotation Yrotation
        JOINT right_clavicle
        {
          OFFSET -13.16364 1.694482 -4.693211
          CHANNELS 3 Zrotation Xrotation Yrotation
          JOINT right_humerus
          {
            OFFSET -28.5034 -0.3100689 -2.792744
            CHANNELS 3 Zrotation Xrotation Yrotation
            JOINT right_radius
            {
              OFFSET -25.15693 0.02248979 -1.271978
              CHANNELS 3 Zrotation Xrotation Yrotation
              End Site
              {
                OFFSET -15 0 0
              }
            }
          }
        }
      }
      JOINT left_manubrium
      {
        OFFSET 5.722621 16.35077 3.967754
        CHANNELS 3 Zrotation Xrotation Yrotation
        JOINT left_clavicle
        {
          OFFSET 13.16364 1.694482 -4.693211
          CHANNELS 3 Zrotation Xrotation Yrotation
          JOINT left_humerus
          {
            OFFSET 29.39168 -1.063119 -2.237045
            CHANNELS 3 Zrotation Xrotation Yrotation
            JOINT left_radius
            {
              OFFSET 24.59957 -0.9528479 0.9047498
              CHANNELS 3 Zrotation Xrotation Yrotation
              End Site
              {
                OFFSET 15 -0 -0
              }
            }
          }
        }
      }
    }
  }
}
MOTION
Frames: 23
Frame Time: 0.0416666666667
-1620.149 110.5677 515.9839 -9.928612 14.20668 -153.8214 -2.034273 9.662182 -9.453145 -0 40.84248 -0 -21.59117 5.275147 5.455997 -5.734603 12.82793 -20.56989 -0 8.301921 -0 -2.083465 -11.98207 22.49996 0.7572914 -5.345875 6.157035 -1.200261 17.5498 -4.119192 2.08393 19.74034 3.327058 2.779295 -15.94667 4.730867 3.562041 -27.65749 13.70144 84.22211 17.19036 -8.641092 -0 0 25.86486 -29.48179 21.40107 18.53659 4.448578 -23.6694 -8.954642 -96.44772 10.75791 32.99456 0 0 -3.37769 7.895081 17.64542 3.940172
-1621.943 110.6008 512.8089 -9.545212 13.4166 -153.5845 -1.977199 6.521568 -8.827348 -0 39.33777 -0 -20.04832 2.770311 4.351008 -5.732624 14.28132 -20.92149 -0 7.466956 -0 -2.171479 -13.20623 22.22834 0.7659263 -5.349601 6.175125 -1.18586 17.55808 -4.135199 2.079169 19.72895 3.310073 2.761292 -15.95414 4.71905 3.540702 -27.69345 13.70533 84.23425 17.15002 -8.645449 -0 0 25.90725 -29.45571 21.40102 18.53331 4.430051 -23.6732 -8.955106 -96.46346 10.76385 33.04386 0 0 -3.386211 7.852398 17.6203 3.990549
-1623.593 110.4193 509.8717 -9.107567 12.49663 -153.4143 -1.890927 3.784786 -8.017726 -0 37.6807 -0 -18.41831 0.2304583 3.31088 -5.792732 15.22493 -21.19856 -0 6.771559 -0 -1.970386 -14.18172 22.08338 0.77434 -5.353985 6.190697 -1.173839 17.56583 -4.148602 2.076266 19.7171 3.29459 2.744316 -15.96249 4.710371 3.522942 -27.7263 13.70879 84.2435 17.11367 -8.646559 -0 0 25.94689 -29.43606 21.40637 18.53492 4.41396 -23.67471 -8.953695 -96.47849 10.76973 33.08879 0 0 -3.391285 7.811986 17.59916 4.038161
-1625.127 110.074 507.1429 -8.614313 11.49217 -153.3014 -1.763076 1.350406 -7.049986 -0 36.2395 -0 -16.83567 -2.129801 2.387021 -5.898824 15.76362 -21.42331 -0 6.236284 -0 -1.53766 -14.95768 22.07139 0.7821064 -5.358914 6.203056 -1.164805 17.57276 -4.158739 2.075371 19.70521 3.281298 2.729225 -15.97113 4.705155 3.50985 -27.75453 13.7117 84.24913 17.08317 -8.644196 -0 0 25.98227 -29.42383 21.41705 18.54139 4.401131 -23.67384 -8.95046 -96.49215 10.77506 33.12738 0 0 -3.392425 7.77566 17.58293 4.080858
-1626.563 109.6167 504.5985 -8.054806 10.42876 -153.2373 -1.574099 -0.9115503 -5.954481 -0 35.11819 -0 -15.34773 -4.216792 1.579571 -6.02739 15.98459 -21.59066 -0 5.849039 -0 -0.9384812 -15.59092 22.16139 0.7888513 -5.364066 6.211886 -1.158929 17.57858 -4.165418 2.076291 19.69393 3.270697 2.716686 -15.97946 4.703256 3.501693 -27.77707 13.71396 84.25116 17.0596 -8.638896 -0 0 26.01194 -29.41884 21.43188 18.55178 4.391942 -23.67096 -8.945811 -96.50383 10.77956 33.15818 0 0 -3.390021 7.745005 17.57193 4.116795
-1627.917 109.0925 502.2147 -7.421941 9.323972 -153.2131 -1.306305 -3.118022 -4.772489 -0 34.28167 -0 -13.97052 -5.987064 0.878946 -6.157852 15.96252 -21.6866 -0 5.586211 -0 -0.2295364 -16.13586 22.31278 0.7943044 -5.369049 6.217213 -1.156044 17.58309 -4.16881 2.078634 19.68393 3.263042 2.707104 -15.98697 4.704212 3.498132 -27.7934 13.71554 84.25012 17.0433 -8.631582 -0 0 26.03486 -29.42015 21.44909 18.56467 4.386382 -23.66666 -8.940323 -96.51308 10.78307 33.18045 0 0 -3.384939 7.721105 17.56599 4.144727
-1629.205 108.5365 499.9644 -6.715912 8.1947 -153.219 -0.9462968 -5.360704 -3.552769 -0 33.63303 -0 -12.71253 -7.417832 0.2775558 -6.274142 15.76461 -21.69653 -0 5.422839 -0 0.5470245 -16.63927 22.4887 0.7983196 -5.373495 6.219336 -1.155751 17.58621 -4.169339 2.081921 19.67573 3.258336 2.700614 -15.9933 4.707378 3.49845 -27.8035 13.71646 84.24679 17.034 -8.623294 -0 0 26.05055 -29.42637 21.46683 18.57855 4.384136 -23.66159 -8.9346 -96.51966 10.78558 33.19418 0 0 -3.378219 7.70445 17.56458 4.164112
-1630.444 107.9731 497.817 -5.944295 7.059071 -153.2454 -0.4864225 -7.704734 -2.346188 -0 33.05336 -0 -11.58219 -8.497035 -0.2288506 -6.364923 15.45292 -21.60837 -0 5.337138 -0 1.364926 -17.1381 22.66087 0.8008707 -5.377118 6.218749 -1.157513 17.58794 -4.167578 2.085666 19.6697 3.256368 2.697101 -15.9982 4.71203 3.501732 -27.80782 13.71677 84.24201 17.03094 -8.615001 -0 0 26.05913 -29.43592 21.48344 18.59201 4.38468 -23.65636 -8.929187 -96.52355 10.78712 33.19996 0 0 -3.370866 7.694937 17.56688 4.175094
-1631.654 107.4153 495.737 -5.120597 5.935176 -153.2832 0.0738783 -10.19084 -1.201488 -0 32.42099 -0 -10.58913 -9.220082 -0.6418979 -6.423871 15.08441 -21.41346 -0 5.313115 -0 2.212148 -17.65894 22.80982 0.8020352 -5.379744 6.216067 -1.160735 17.58842 -4.164172 2.089427 19.66594 3.256755 2.696261 -16.00154 4.717444 3.507018 -27.80716 13.71656 84.23656 17.03309 -8.607494 -0 0 26.06124 -29.44722 21.49759 18.6039 4.387375 -23.6515 -8.92452 -96.52495 10.7878 33.19891 0 0 -3.363731 7.691964 17.57193 4.178402
-1632.855 106.8654 493.6849 -4.262138 4.838837 -153.3236 0.7271466 -12.83803 -0.163207 -0 31.62082 -0 -9.744028 -9.587713 -0.9608616 -6.449733 14.71015 -21.10651 -0 5.343168 -0 3.086577 -18.21823 22.92237 0.8019699 -5.381309 6.211956 -1.16482 17.58783 -4.159771 2.092836 19.66438 3.258998 2.69765 -16.00331 4.72295 3.513397 -27.80257 13.71596 84.23112 17.03922 -8.601347 -0 0 26.05792 -29.45884 21.50838 18.61336 4.391534 -23.64739 -8.920907 -96.52422 10.78771 33.19247 0 0 -3.357453 7.694546 17.5787 4.175208
-1634.071 106.3164 491.6158 -3.387834 3.782104 -153.3583 1.45768 -15.64506 0.7284206 -0 30.55035 -0 -9.058972 -9.603416 -1.182361 -6.445645 14.37466 -20.68552 -0 5.431873 -0 3.988729 -18.82239 22.98718 0.800885 -5.381849 6.207088 -1.169212 17.58643 -4.154985 2.095612 19.66479 3.26254 2.700751 -16.00358 4.727959 3.520069 -27.7952 13.71509 84.22619 17.04806 -8.596907 -0 0 26.05052 -29.46953 21.51533 18.61985 4.396487 -23.64432 -8.918529 -96.52179 10.78696 33.18224 0 0 -3.352456 7.70145 17.58619 4.166963
-1635.323 105.7546 489.4794 -2.516134 2.773554 -153.3783 2.242096 -18.58883 1.436596 -0 29.12707 -0 -8.549044 -9.270986 -1.300086 -6.417351 14.11564 -20.15205 -0 5.602017 -0 4.91116 -19.46677 22.98847 0.7990192 -5.381478 6.202084 -1.173426 17.5845 -4.15035 2.097559 19.66682 3.266814 2.705018 -16.00244 4.731992 3.526386 -27.78621 13.7141 84.2221 17.0584 -8.594322 -0 0 26.04051 -29.47833 21.51828 18.62313 4.401622 -23.64242 -8.917455 -96.51819 10.78565 33.16987 0 0 -3.348956 7.711335 17.59348 4.155245
-1636.637 105.163 487.2182 -1.66328 1.820874 -153.3732 3.05079 -21.61785 1.927681 -0 27.30108 -0 -8.234733 -8.59394 -1.305237 -6.370135 13.96357 -19.5122 -0 5.903807 -0 5.824121 -20.13206 22.89771 0.7966165 -5.38037 6.197486 -1.177079 17.5823 -4.1463 2.098575 19.67001 3.271283 2.709927 -16.00005 4.734693 3.531881 -27.77673 13.7131 84.21902 17.06915 -8.593547 -0 0 26.02936 -29.48454 21.51745 18.62318 4.406427 -23.64174 -8.917649 -96.51393 10.78384 33.15693 0 0 -3.346969 7.722855 17.5998 4.141623
-1638.039 104.5278 484.7676 -0.8418747 0.9356276 -153.3303 3.850856 -24.63936 2.173693 -0 25.07622 -0 -8.143631 -7.579538 -1.188346 -6.30449 13.93983 -18.77822 -0 6.427606 -0 6.657762 -20.7765 22.66296 0.793909 -5.378751 6.193716 -1.179912 17.58011 -4.143132 2.098651 19.6739 3.275479 2.715014 -15.99658 4.735854 3.536303 -27.76771 13.71222 84.21691 17.07945 -8.59434 -0 0 26.01851 -29.4878 21.51332 18.62028 4.410522 -23.64221 -8.918974 -96.50949 10.78156 33.14478 0 0 -3.346295 7.734758 17.60455 4.127547
-1639.555 103.8464 482.0563 -0.05981715 0.1392632 -153.2355 4.611971 -27.50127 2.160491 -0 22.54003 -0 -8.308239 -6.25065 -0.9432649 -6.211024 14.05111 -17.97001 -0 7.318771 -0 7.284963 -21.32266 22.19815 0.7911055 -5.376898 6.191025 -1.181838 17.57814 -4.140961 2.097907 19.67794 3.279037 2.719899 -15.99221 4.735469 3.539683 -27.7599 13.71154 84.2155 17.08877 -8.596225 -0 0 26.00921 -29.48822 21.5068 18.61502 4.413712 -23.6436 -8.921163 -96.50531 10.77881 33.13449 0 0 -3.346468 7.745959 17.60741 4.114263
-1641.213 103.1388 479.011 0.6797108 -0.5317991 -153.0755 5.317201 -29.9769 1.903866 -0 19.89445 -0 -8.75517 -4.66664 -0.5743311 -6.066556 14.27742 -17.11412 -0 8.789361 -0 7.518895 -21.64003 21.38121 0.7883916 -5.375157 6.189408 -1.183015 17.57659 -4.139636 2.096651 19.68157 3.28175 2.724318 -15.98722 4.733846 3.542429 -27.75373 13.71111 84.21422 17.09698 -8.598395 -0 0 26.00245 -29.48653 21.49931 18.60848 4.416057 -23.64543 -8.923763 -96.50175 10.77556 33.12667 0 0 -3.34668 7.755605 17.60847 4.102725
-1643.038 102.4598 475.566 1.374731 -1.02531 -152.8451 5.976912 -31.77226 1.468946 -0 17.461 -0 -9.482858 -2.945774 -0.1069244 -5.836263 14.55353 -16.2349 -0 11.11608 -0 7.154878 -21.53267 20.08216 0.7859395 -5.373966 6.188466 -1.183959 17.57553 -4.138615 2.095478 19.68416 3.283654 2.728146 -15.98207 4.731805 3.545435 -27.74911 13.71089 84.21213 17.10447 -8.599601 -0 0 25.99869 -29.48452 21.49312 18.60252 4.417987 -23.64695 -8.92603 -96.49905 10.77184 33.12124 0 0 -3.345694 7.763194 17.60849 4.09348
-1645.056 101.9044 471.6776 2.012961 -1.279706 -152.5568 6.632105 -32.58021 0.9725644 -0 15.61571 -0 -10.4348 -1.266738 0.4023431 -5.489034 14.74989 -15.33368 -0 14.61195 -0 6.084531 -20.75733 18.24296 0.783906 -5.373827 6.187217 -1.185659 17.57491 -4.136836 2.095356 19.68508 3.285171 2.73146 -15.97757 4.730901 3.550153 -27.74524 13.71076 84.20792 17.11233 -8.598124 -0 0 25.99745 -29.48532 21.49149 18.60002 4.420428 -23.64694 -8.926862 -96.49723 10.76787 33.11697 0 0 -3.341888 7.768811 17.60917 4.086395
-1647.279 101.5995 467.3405 2.551952 -1.238946 -152.253 7.325823 -32.17739 0.5432417 -0 14.63342 -0 -11.49164 0.1747854 0.8663118 -5.026216 14.66465 -14.36641 -0 19.56722 -0 4.442731 -19.10673 15.98472 0.7823574 -5.375166 6.184004 -1.189586 17.57439 -4.132688 2.097563 19.684 3.287265 2.734676 -15.97484 4.733431 3.558494 -27.74024 13.71043 84.20018 17.12242 -8.592053 -0 0 25.99663 -29.49333 21.49822 18.60458 4.42486 -23.64394 -8.924918 -96.4959 10.7641 33.11106 0 0 -3.333561 7.773594 17.61334 4.08014
-1649.707 101.6775 462.5989 2.906356 -0.8742814 -152.0067 8.048892 -30.49873 0.2563339 -0 14.51963 -0 -12.50551 1.235397 1.189147 -4.501629 14.02847 -13.25625 -0 26.16058 -0 2.633347 -16.55032 13.63355 0.7810754 -5.37805 6.176677 -1.19746 17.57329 -4.124267 2.103323 19.68131 3.29149 2.73877 -15.97484 4.741905 3.572482 -27.731 13.70944 84.18774 17.13759 -8.579979 -0 0 25.99221 -29.51323 21.51619 18.61927 4.433166 -23.63665 -8.919102 -96.49402 10.76103 33.09896 0 0 -3.319509 7.780305 17.62453 4.071506
-1652.31 102.2414 457.5542 2.966149 -0.2073457 -151.9017 8.707786 -27.62066 0.1097939 -0 14.97508 -0 -13.36256 1.847981 1.302161 -3.999248 12.51886 -11.96599 -0 34.31466 -0 1.124009 -13.33557 11.58854 0.7793672 -5.38195 6.163102 -1.210811 17.5706 -4.109855 2.113287 19.67836 3.29979 2.745394 -15.97766 4.758123 3.59378 -27.71359 13.70728 84.17003 17.16152 -8.561715 -0 0 25.9787 -29.54825 21.54562 18.64498 4.447244 -23.62457 -8.909157 -96.48982 10.75876 33.07498 0 0 -3.299502 7.793462 17.64593 4.055206
-1655.018 103.3237 452.3636 2.641151 0.6833453 -151.9936 9.145112 -23.69711 0.05390465 -0 15.51718 -0 -14.02131 1.98252 1.189788 -3.572934 9.826502 -10.5723 -0 43.46567 -0 0.1757843 -9.951822 10.14776 0.7761294 -5.385796 6.141732 -1.23057 17.56519 -4.088372 2.127273 19.6773 3.314028 2.756589 -15.98223 4.782545 3.623309 -27.68411 13.7035 84.14726 17.19808 -8.538429 -0 0 25.95048 -29.5991 21.58357 18.67978 4.46853 -23.60815 -8.895867 -96.48122 10.75682 33.03368 0 0 -3.274281 7.818465 17.67954 4.024864
-1657.72 104.8468 447.2142 1.902594 1.693073 -152.277 9.209632 -18.95671 0.02499754 -0 15.64252 -0 -14.48688 1.630586 0.8902987 -3.19887 5.838194 -9.233516 -0 52.36686 -0 -0.2333291 -6.968908 9.449499 0.7701724 -5.38828 6.112147 -1.256731 17.55618 -4.059757 2.144275 19.68043 3.335373 2.774131 -15.98663 4.814067 3.660885 -27.63999 13.69781 84.12033 17.25013 -8.512319 -0 0 25.90367 -29.66355 21.62465 18.71936 4.497473 -23.58872 -8.880869 -96.46643 10.75429 32.97163 0 0 -3.245313 7.859894 17.72534 3.975019
